#N canvas 50 296 623 461 10;
#X obj 56 56 dumpOSC 57110;
#X obj 146 105 OSCroute /n_set /n_free /s_new;
#X obj 26 154 route 1000 1001 1002;
#X obj 26 193 unpack s f;
#X obj 91 229 osc~;
#X obj 110 193 unpack s f;
#X obj 175 229 osc~;
#X obj 192 194 unpack s f;
#X obj 257 230 osc~;
#X obj 119 392 +~;
#X obj 166 366 /~ 2;
#X obj 208 396 +~;
#X obj 153 421 dac~;
#X obj 302 197 route 1000 1001 1002;
#X obj 254 349 *~;
#X obj 453 198 route 1000 1001 1002;
#X msg 453 235 1;
#X msg 491 233 1;
#X msg 529 236 1;
#X msg 305 230 0;
#X msg 340 231 0;
#X msg 374 232 0;
#X obj 97 343 *~;
#X obj 173 338 *~;
#X obj 37 101 print OSC;
#X obj 346 146 route javaosc-example;
#X connect 0 0 1 0;
#X connect 0 0 24 0;
#X connect 1 0 2 0;
#X connect 1 1 13 0;
#X connect 1 2 25 0;
#X connect 2 0 3 0;
#X connect 2 1 5 0;
#X connect 2 2 7 0;
#X connect 3 1 4 0;
#X connect 4 0 22 0;
#X connect 5 1 6 0;
#X connect 6 0 23 0;
#X connect 7 1 8 0;
#X connect 8 0 14 0;
#X connect 9 0 12 0;
#X connect 10 0 9 1;
#X connect 10 0 11 0;
#X connect 11 0 12 1;
#X connect 13 0 19 0;
#X connect 13 1 20 0;
#X connect 13 2 21 0;
#X connect 14 0 11 1;
#X connect 15 0 16 0;
#X connect 15 1 17 0;
#X connect 15 2 18 0;
#X connect 16 0 22 1;
#X connect 17 0 23 1;
#X connect 18 0 14 1;
#X connect 19 0 22 1;
#X connect 20 0 23 1;
#X connect 21 0 14 1;
#X connect 22 0 9 0;
#X connect 23 0 10 0;
#X connect 25 0 15 0;

